<?xml version="1.0" encoding="UTF-8"?>
<svg version="1.1" xmlns="http://www.w3.org/2000/svg" width="512" height="512">
<path d="M0 0 C10.40164301 2.6837827 16.8787016 12.24550122 22.55859375 20.66015625 C22.68363281 19.55414062 22.80867187 18.448125 22.9375 17.30859375 C23.62568969 13.26602036 24.40494588 12.14484851 27.55859375 9.66015625 C30.41183812 8.23353406 32.39313924 8.34981757 35.55859375 8.66015625 C38.25850037 10.46009399 40.10048025 11.74392925 41.55859375 14.66015625 C42.0639784 21.7355414 40.74847865 28.28038646 37.55859375 34.66015625 C38.30729736 34.75514404 39.05600098 34.85013184 39.82739258 34.94799805 C80.65317406 40.21573997 118.89231854 52.04303047 149.55859375 80.66015625 C150.1220752 81.18512695 150.68555664 81.71009766 151.26611328 82.25097656 C173.12563452 102.85045657 190.33639955 130.66610301 198.55859375 159.66015625 C198.55859375 160.65015625 198.55859375 161.64015625 198.55859375 162.66015625 C199.70714844 162.61375 200.85570312 162.56734375 202.0390625 162.51953125 C215.76692392 162.13408374 227.65076902 163.50545769 238.18359375 173.03515625 C244.66647447 180.20044547 246.19848336 186.06622988 245.95703125 195.546875 C244.86651093 212.04776224 231.48637348 227.17714984 219.55859375 237.66015625 C218.97314789 238.00479416 218.38770203 238.34943207 217.78451538 238.70451355 C215.79974672 239.88177353 214.1837697 241.01703088 212.55859375 242.66015625 C211.87363673 245.73588439 211.66467601 247.77434982 211.76171875 250.8359375 C211.75781128 251.62961227 211.75390381 252.42328705 211.74987793 253.24101257 C211.74400981 254.93843748 211.75307617 256.63596844 211.77575684 258.33325195 C211.83098168 262.77217999 211.76632144 267.20968446 211.71484375 271.6484375 C211.7074115 272.52251251 211.69997925 273.39658752 211.69232178 274.29714966 C211.57630477 284.89040414 210.40151952 295.23440834 208.55859375 305.66015625 C208.39375488 306.60133301 208.22891602 307.54250977 208.05908203 308.51220703 C201.6404404 343.79989177 187.1076897 377.22629286 162.55859375 403.66015625 C162.00333008 404.25924805 161.44806641 404.85833984 160.87597656 405.47558594 C139.17870894 428.60265702 110.16411946 446.80768588 79.55859375 455.66015625 C78.56859375 455.66015625 77.57859375 455.66015625 76.55859375 455.66015625 C78.20859375 459.95015625 79.85859375 464.24015625 81.55859375 468.66015625 C83.73839844 468.6859375 85.91820312 468.71171875 88.1640625 468.73828125 C90.28569197 468.77674402 92.40708186 468.82189009 94.52856445 468.86767578 C95.99784825 468.89582236 97.4672817 468.91706834 98.93676758 468.93115234 C101.05497489 468.95267155 103.17139528 468.99935959 105.2890625 469.05078125 C107.19788208 469.08220215 107.19788208 469.08220215 109.14526367 469.11425781 C113.10027471 469.74678801 114.77222829 470.82958325 117.55859375 473.66015625 C118.87018143 477.43097084 118.74515283 479.1495735 117.37109375 482.91015625 C115.39037733 485.91538117 114.86731362 486.50856106 111.55859375 487.66015625 C108.61081856 487.8648755 105.76022528 487.96422686 102.8125 487.9609375 C101.96437241 487.96522263 101.11624481 487.96950775 100.24241638 487.97392273 C98.45125215 487.9796576 96.66006463 487.9801725 94.86889648 487.97583008 C92.13419709 487.97267138 89.40058124 487.9961347 86.66601562 488.02148438 C84.92317844 488.02375765 83.18033836 488.02446074 81.4375 488.0234375 C80.62277725 488.03264725 79.8080545 488.04185699 78.96864319 488.05134583 C74.35741983 488.0139236 71.27834265 487.68784855 67.55859375 484.66015625 C65.86328125 481.5859375 65.86328125 481.5859375 64.43359375 477.97265625 C64.05630127 477.03752197 64.05630127 477.03752197 63.67138672 476.08349609 C62.94979704 474.28256164 62.25358309 472.47152214 61.55859375 470.66015625 C61.213125 469.76941406 60.86765625 468.87867188 60.51171875 467.9609375 C59.84188646 466.20104794 59.19642028 464.43189661 58.55859375 462.66015625 C51.48817477 463.25087372 44.59334884 464.30273197 37.62109375 465.59765625 C27.29561737 467.44932222 17.01151386 468.79982396 6.55859375 469.66015625 C5.86717285 469.71800293 5.17575195 469.77584961 4.46337891 469.83544922 C-5.86391127 470.66785697 -16.08654443 470.74644677 -26.44140625 470.66015625 C-26.44140625 476.60015625 -26.44140625 482.54015625 -26.44140625 488.66015625 C-23.73953125 489.23765625 -21.03765625 489.81515625 -18.25390625 490.41015625 C-14.97798507 491.13886698 -11.70872323 491.8938317 -8.44140625 492.66015625 C-7.41176758 492.90040527 -7.41176758 492.90040527 -6.36132812 493.14550781 C-4.56799328 493.57866715 -2.78537622 494.05552972 -1.00390625 494.53515625 C0.00542969 494.80070312 1.01476562 495.06625 2.0546875 495.33984375 C5.46577454 497.13851367 6.2268906 499.10894786 7.55859375 502.66015625 C7.48898628 506.14052962 6.91719545 508.06768388 5.12109375 511.03515625 C-0.32731168 514.49024262 -7.15127694 512.84292588 -13.17945862 511.55700684 C-15.99378114 510.91429462 -18.7950224 510.22710847 -21.59301758 509.5168457 C-23.76236812 508.97052525 -25.93776596 508.4562372 -28.11523438 507.94335938 C-29.51219294 507.5969588 -30.90869615 507.24871556 -32.3046875 506.8984375 C-34.18087769 506.43497925 -34.18087769 506.43497925 -36.0949707 505.9621582 C-40.02219384 504.43418848 -41.92536087 503.04081596 -44.44140625 499.66015625 C-45.0090332 496.33862305 -45.0090332 496.33862305 -44.9296875 492.609375 C-44.91907539 491.62116508 -44.91907539 491.62116508 -44.9082489 490.61299133 C-44.88041604 488.52335591 -44.81771444 486.43647149 -44.75390625 484.34765625 C-44.7288083 482.92516911 -44.70599773 481.50263966 -44.68554688 480.08007812 C-44.63063071 476.60588764 -44.5444431 473.13329075 -44.44140625 469.66015625 C-45.24715088 469.67393311 -46.05289551 469.68770996 -46.88305664 469.7019043 C-54.31307871 469.7740615 -61.51324755 469.43334003 -68.87890625 468.47265625 C-70.41417969 468.27518799 -70.41417969 468.27518799 -71.98046875 468.07373047 C-110.37605583 462.83743192 -146.96491388 449.4928443 -175.44140625 422.66015625 C-176.12847656 422.03753906 -176.81554687 421.41492188 -177.5234375 420.7734375 C-187.06925276 411.79246338 -193.60507826 400.75875168 -198.44140625 388.66015625 C-198.93447266 387.43425781 -198.93447266 387.43425781 -199.4375 386.18359375 C-204.01212652 373.09447098 -203.67902617 358.19282584 -197.83203125 345.64453125 C-196.796694 343.56063405 -195.74944094 341.48262178 -194.69140625 339.41015625 C-193.59969531 337.19817594 -192.51113194 334.98463927 -191.42578125 332.76953125 C-190.90693359 331.71443359 -190.38808594 330.65933594 -189.85351562 329.57226562 C-174.85936307 298.65071451 -174.48940497 264.05982036 -173.94140625 230.34765625 C-173.54982292 206.37873088 -173.54982292 206.37873088 -172.984375 195.171875 C-172.94860352 194.43507004 -172.91283203 193.69826508 -172.87597656 192.93913269 C-170.93862977 157.89898361 -156.94514098 124.58442485 -133.44140625 98.66015625 C-132.30058594 97.33951172 -132.30058594 97.33951172 -131.13671875 95.9921875 C-102.56827511 63.2045609 -60.72572507 44.02514723 -18.44140625 36.66015625 C-19.36953125 36.22703125 -20.29765625 35.79390625 -21.25390625 35.34765625 C-25.78099349 32.950963 -25.78099349 32.950963 -27.44140625 30.66015625 C-27.875 28.5390625 -27.875 28.5390625 -27.87890625 26.22265625 C-27.89824219 25.46082031 -27.91757813 24.69898437 -27.9375 23.9140625 C-27.21450577 20.62927771 -26.21905177 19.56790348 -23.44140625 17.66015625 C-20.50638373 17.18335023 -17.65475748 17.28238323 -14.69140625 17.41015625 C-13.50224609 17.43722656 -13.50224609 17.43722656 -12.2890625 17.46484375 C-10.33932277 17.51182543 -8.39020747 17.58356581 -6.44140625 17.66015625 C-7.4159375 16.79197266 -7.4159375 16.79197266 -8.41015625 15.90625 C-10.44140625 13.66015625 -10.44140625 13.66015625 -10.94140625 9.72265625 C-10.76189327 6.81237002 -10.30376037 5.37289528 -9.00390625 2.66015625 C-5.8323125 0.18476601 -3.97591511 -0.25461525 0 0 Z " fill="#FEDB00" transform="translate(236.44140625,-0.66015625)"/>
<path d="M0 0 C10.40164301 2.6837827 16.8787016 12.24550122 22.55859375 20.66015625 C22.68363281 19.55414062 22.80867187 18.448125 22.9375 17.30859375 C23.62568969 13.26602036 24.40494588 12.14484851 27.55859375 9.66015625 C30.41183812 8.23353406 32.39313924 8.34981757 35.55859375 8.66015625 C38.25850037 10.46009399 40.10048025 11.74392925 41.55859375 14.66015625 C42.0639784 21.7355414 40.74847865 28.28038646 37.55859375 34.66015625 C38.30729736 34.75514404 39.05600098 34.85013184 39.82739258 34.94799805 C80.65317406 40.21573997 118.89231854 52.04303047 149.55859375 80.66015625 C150.1220752 81.18512695 150.68555664 81.71009766 151.26611328 82.25097656 C173.12563452 102.85045657 190.33639955 130.66610301 198.55859375 159.66015625 C198.55859375 160.65015625 198.55859375 161.64015625 198.55859375 162.66015625 C199.70714844 162.61375 200.85570312 162.56734375 202.0390625 162.51953125 C215.76692392 162.13408374 227.65076902 163.50545769 238.18359375 173.03515625 C244.66647447 180.20044547 246.19848336 186.06622988 245.95703125 195.546875 C244.86651093 212.04776224 231.48637348 227.17714984 219.55859375 237.66015625 C218.97314789 238.00479416 218.38770203 238.34943207 217.78451538 238.70451355 C215.79974672 239.88177353 214.1837697 241.01703088 212.55859375 242.66015625 C211.87363673 245.73588439 211.66467601 247.77434982 211.76171875 250.8359375 C211.75781128 251.62961227 211.75390381 252.42328705 211.74987793 253.24101257 C211.74400981 254.93843748 211.75307617 256.63596844 211.77575684 258.33325195 C211.83098168 262.77217999 211.76632144 267.20968446 211.71484375 271.6484375 C211.7074115 272.52251251 211.69997925 273.39658752 211.69232178 274.29714966 C211.57630477 284.89040414 210.40151952 295.23440834 208.55859375 305.66015625 C208.39375488 306.60133301 208.22891602 307.54250977 208.05908203 308.51220703 C201.6404404 343.79989177 187.1076897 377.22629286 162.55859375 403.66015625 C162.00333008 404.25924805 161.44806641 404.85833984 160.87597656 405.47558594 C139.17870894 428.60265702 110.16411946 446.80768588 79.55859375 455.66015625 C78.56859375 455.66015625 77.57859375 455.66015625 76.55859375 455.66015625 C78.20859375 459.95015625 79.85859375 464.24015625 81.55859375 468.66015625 C83.73839844 468.6859375 85.91820312 468.71171875 88.1640625 468.73828125 C90.28569197 468.77674402 92.40708186 468.82189009 94.52856445 468.86767578 C95.99784825 468.89582236 97.4672817 468.91706834 98.93676758 468.93115234 C101.05497489 468.95267155 103.17139528 468.99935959 105.2890625 469.05078125 C107.19788208 469.08220215 107.19788208 469.08220215 109.14526367 469.11425781 C113.10027471 469.74678801 114.77222829 470.82958325 117.55859375 473.66015625 C118.87018143 477.43097084 118.74515283 479.1495735 117.37109375 482.91015625 C115.39037733 485.91538117 114.86731362 486.50856106 111.55859375 487.66015625 C108.61081856 487.8648755 105.76022528 487.96422686 102.8125 487.9609375 C101.96437241 487.96522263 101.11624481 487.96950775 100.24241638 487.97392273 C98.45125215 487.9796576 96.66006463 487.9801725 94.86889648 487.97583008 C92.13419709 487.97267138 89.40058124 487.9961347 86.66601562 488.02148438 C84.92317844 488.02375765 83.18033836 488.02446074 81.4375 488.0234375 C80.62277725 488.03264725 79.8080545 488.04185699 78.96864319 488.05134583 C74.35741983 488.0139236 71.27834265 487.68784855 67.55859375 484.66015625 C65.86328125 481.5859375 65.86328125 481.5859375 64.43359375 477.97265625 C64.05630127 477.03752197 64.05630127 477.03752197 63.67138672 476.08349609 C62.94979704 474.28256164 62.25358309 472.47152214 61.55859375 470.66015625 C61.213125 469.76941406 60.86765625 468.87867188 60.51171875 467.9609375 C59.84188646 466.20104794 59.19642028 464.43189661 58.55859375 462.66015625 C51.48817477 463.25087372 44.59334884 464.30273197 37.62109375 465.59765625 C27.29561737 467.44932222 17.01151386 468.79982396 6.55859375 469.66015625 C5.86717285 469.71800293 5.17575195 469.77584961 4.46337891 469.83544922 C-5.86391127 470.66785697 -16.08654443 470.74644677 -26.44140625 470.66015625 C-26.44140625 476.60015625 -26.44140625 482.54015625 -26.44140625 488.66015625 C-23.73953125 489.23765625 -21.03765625 489.81515625 -18.25390625 490.41015625 C-14.97798507 491.13886698 -11.70872323 491.8938317 -8.44140625 492.66015625 C-7.41176758 492.90040527 -7.41176758 492.90040527 -6.36132812 493.14550781 C-4.56799328 493.57866715 -2.78537622 494.05552972 -1.00390625 494.53515625 C0.00542969 494.80070312 1.01476562 495.06625 2.0546875 495.33984375 C5.46577454 497.13851367 6.2268906 499.10894786 7.55859375 502.66015625 C7.48898628 506.14052962 6.91719545 508.06768388 5.12109375 511.03515625 C-0.32731168 514.49024262 -7.15127694 512.84292588 -13.17945862 511.55700684 C-15.99378114 510.91429462 -18.7950224 510.22710847 -21.59301758 509.5168457 C-23.76236812 508.97052525 -25.93776596 508.4562372 -28.11523438 507.94335938 C-29.51219294 507.5969588 -30.90869615 507.24871556 -32.3046875 506.8984375 C-34.18087769 506.43497925 -34.18087769 506.43497925 -36.0949707 505.9621582 C-40.02219384 504.43418848 -41.92536087 503.04081596 -44.44140625 499.66015625 C-45.0090332 496.33862305 -45.0090332 496.33862305 -44.9296875 492.609375 C-44.91907539 491.62116508 -44.91907539 491.62116508 -44.9082489 490.61299133 C-44.88041604 488.52335591 -44.81771444 486.43647149 -44.75390625 484.34765625 C-44.7288083 482.92516911 -44.70599773 481.50263966 -44.68554688 480.08007812 C-44.63063071 476.60588764 -44.5444431 473.13329075 -44.44140625 469.66015625 C-45.24715088 469.67393311 -46.05289551 469.68770996 -46.88305664 469.7019043 C-54.31307871 469.7740615 -61.51324755 469.43334003 -68.87890625 468.47265625 C-70.41417969 468.27518799 -70.41417969 468.27518799 -71.98046875 468.07373047 C-110.37605583 462.83743192 -146.96491388 449.4928443 -175.44140625 422.66015625 C-176.12847656 422.03753906 -176.81554687 421.41492188 -177.5234375 420.7734375 C-187.06925276 411.79246338 -193.60507826 400.75875168 -198.44140625 388.66015625 C-198.93447266 387.43425781 -198.93447266 387.43425781 -199.4375 386.18359375 C-204.01212652 373.09447098 -203.67902617 358.19282584 -197.83203125 345.64453125 C-196.796694 343.56063405 -195.74944094 341.48262178 -194.69140625 339.41015625 C-193.59969531 337.19817594 -192.51113194 334.98463927 -191.42578125 332.76953125 C-190.90693359 331.71443359 -190.38808594 330.65933594 -189.85351562 329.57226562 C-174.85936307 298.65071451 -174.48940497 264.05982036 -173.94140625 230.34765625 C-173.54982292 206.37873088 -173.54982292 206.37873088 -172.984375 195.171875 C-172.94860352 194.43507004 -172.91283203 193.69826508 -172.87597656 192.93913269 C-170.93862977 157.89898361 -156.94514098 124.58442485 -133.44140625 98.66015625 C-132.30058594 97.33951172 -132.30058594 97.33951172 -131.13671875 95.9921875 C-102.56827511 63.2045609 -60.72572507 44.02514723 -18.44140625 36.66015625 C-19.36953125 36.22703125 -20.29765625 35.79390625 -21.25390625 35.34765625 C-25.78099349 32.950963 -25.78099349 32.950963 -27.44140625 30.66015625 C-27.875 28.5390625 -27.875 28.5390625 -27.87890625 26.22265625 C-27.89824219 25.46082031 -27.91757813 24.69898437 -27.9375 23.9140625 C-27.21450577 20.62927771 -26.21905177 19.56790348 -23.44140625 17.66015625 C-20.50638373 17.18335023 -17.65475748 17.28238323 -14.69140625 17.41015625 C-13.50224609 17.43722656 -13.50224609 17.43722656 -12.2890625 17.46484375 C-10.33932277 17.51182543 -8.39020747 17.58356581 -6.44140625 17.66015625 C-7.4159375 16.79197266 -7.4159375 16.79197266 -8.41015625 15.90625 C-10.44140625 13.66015625 -10.44140625 13.66015625 -10.94140625 9.72265625 C-10.76189327 6.81237002 -10.30376037 5.37289528 -9.00390625 2.66015625 C-5.8323125 0.18476601 -3.97591511 -0.25461525 0 0 Z M-63.44140625 68.66015625 C-64.11510254 68.96679199 -64.78879883 69.27342773 -65.48291016 69.58935547 C-79.64131008 76.12478343 -92.61985864 84.47233184 -104.44140625 94.66015625 C-104.93318359 95.07958496 -105.42496094 95.49901367 -105.93164062 95.93115234 C-135.49782632 121.36061771 -151.14802613 155.26621397 -155.44140625 193.66015625 C-155.98366312 201.20237298 -156.03418689 208.75346219 -156.05532837 216.31234741 C-156.07445166 222.09153146 -156.16252219 227.8698253 -156.2421875 233.6484375 C-156.25644272 234.77977615 -156.27069794 235.91111481 -156.28538513 237.07673645 C-156.81120996 275.89987008 -160.65945801 312.24719185 -178.73046875 347.109375 C-183.97383462 357.35808254 -186.10720441 365.30976698 -183.69140625 376.91015625 C-175.53902168 401.36730997 -156.85642191 419.19352965 -134.19091797 430.81396484 C-125.18984793 435.30264435 -116.08475573 439.73637476 -106.44140625 442.66015625 C-105.51714844 442.94536133 -105.51714844 442.94536133 -104.57421875 443.23632812 C-90.14006042 447.60742701 -75.38076897 449.78560944 -60.44140625 451.66015625 C-59.78397934 451.74669464 -59.12655243 451.83323303 -58.44920349 451.9223938 C-52.39705703 452.66847908 -46.39893742 452.8675667 -40.3046875 452.93359375 C-39.24357254 452.94607651 -38.18245758 452.95855927 -37.08918762 452.97142029 C-11.11598971 453.21715116 13.9801559 452.27571754 39.55859375 447.66015625 C41.3080127 447.34788086 41.3080127 447.34788086 43.09277344 447.02929688 C74.50220911 441.23322902 106.69341913 429.082753 131.55859375 408.66015625 C132.12030273 408.20382812 132.68201172 407.7475 133.26074219 407.27734375 C171.28098997 376.24717971 187.59404716 333.19825142 193.55859375 285.66015625 C193.71654419 284.47752197 193.71654419 284.47752197 193.87768555 283.27099609 C198.10310777 247.76830512 194.54129876 208.9055881 184.55859375 174.66015625 C184.32414551 173.84498535 184.08969727 173.02981445 183.84814453 172.18994141 C175.46059064 143.65331663 161.01203108 119.14881356 140.55859375 97.66015625 C139.965625 97.01433594 139.37265625 96.36851563 138.76171875 95.703125 C109.58858238 64.86914176 63.36729027 52.30982524 22.19490051 51.157547 C-7.59170159 50.5992254 -36.35227945 56.26365896 -63.44140625 68.66015625 Z " fill="#010100" transform="translate(236.44140625,-0.66015625)"/>
<path d="M0 0 C23.91771372 7.63331289 43.01536633 19.61154203 61 37 C61.66515625 37.61359375 62.3303125 38.2271875 63.015625 38.859375 C84.81448597 59.43586993 98.89786418 91.33319726 106 120 C106.32484375 121.1859375 106.6496875 122.371875 106.984375 123.59375 C116.16613365 158.8728919 117.48149936 199.72487204 111.41015625 235.57177734 C111.01960327 237.88394397 110.67571557 240.19833375 110.34375 242.51953125 C104.32431252 282.65368502 83.66066731 322.32984354 51 347 C49.95328125 347.80050781 48.9065625 348.60101563 47.828125 349.42578125 C35.33358422 358.78206478 21.7959523 365.97883927 7.5 372.1875 C6.12799438 372.78606812 6.12799438 372.78606812 4.72827148 373.39672852 C3.87950439 373.75436279 3.0307373 374.11199707 2.15625 374.48046875 C1.40150391 374.79910889 0.64675781 375.11774902 -0.13085938 375.44604492 C-2 376 -2 376 -4 375 C-3.44763672 374.69932617 -2.89527344 374.39865234 -2.32617188 374.08886719 C14.24272363 365.0082339 29.31410953 355.10002187 43 342 C44.19109375 340.90365234 44.19109375 340.90365234 45.40625 339.78515625 C62.26286854 323.75536552 73.3749717 303.37382675 82 282 C82.65742188 280.43572266 82.65742188 280.43572266 83.328125 278.83984375 C98.23715063 240.76521183 98.96341818 195.62054169 94.4375 155.40625 C93.9719979 151.245825 93.92322042 147.18448694 94 143 C93.01 143.33 92.02 143.66 91 144 C88.71238153 144.17143087 86.41857031 144.26643463 84.125 144.3125 C82.91070312 144.34988281 81.69640625 144.38726562 80.4453125 144.42578125 C76.39069116 143.92469993 74.81825961 142.90633022 72 140 C70.875 136.625 70.875 136.625 71 133 C72.72377209 129.97156904 74.84047303 127.57976349 78 126 C80.04055005 125.92934383 82.08334257 125.91578024 84.125 125.9375 C85.22070312 125.94652344 86.31640625 125.95554687 87.4453125 125.96484375 C88.28835938 125.97644531 89.13140625 125.98804688 90 126 C77.39750244 77.66655766 55.22288869 33.61556187 10.875 7.4375 C5.61996443 4.32860906 5.61996443 4.32860906 0 2 C0 1.34 0 0.68 0 0 Z " fill="#FABE07" transform="translate(317,61)"/>
<path d="M0 0 C11.0478966 6.98843692 18.29425232 16.90100464 24.0625 28.4375 C24.59757099 32.4505324 24.39301628 33.97678033 22 37.3125 C19.0625 39.4375 19.0625 39.4375 15.5625 40.0625 C11.25332605 39.29300465 9.52670464 37.86820407 7.0625 34.4375 C5.92473955 32.65390935 4.80096207 30.86135983 3.6875 29.0625 C-0.47883165 22.35660394 -5.19078584 16.01973805 -12.9375 13.4375 C-17.66819615 12.83582163 -21.51062564 12.4282474 -25.5 15.25 C-27.6067764 18.45596409 -28.0647418 21.00761219 -28.0703125 24.75390625 C-28.07208496 25.59630859 -28.07385742 26.43871094 -28.07568359 27.30664062 C-28.07133301 28.19544922 -28.06698242 29.08425781 -28.0625 30 C-28.0620166 30.90298828 -28.0615332 31.80597656 -28.06103516 32.73632812 C-28.03309607 38.07365709 -27.83397173 43.2854931 -26.9609375 48.5625 C-26.92998721 51.03852312 -27.60191856 52.36950293 -28.9375 54.4375 C-32.6137269 56.88831793 -35.66684888 57.24849233 -39.9375 56.4375 C-44.4052792 52.79273276 -45.09278804 47.88434995 -45.9375 42.4375 C-46.25534967 38.28771873 -46.30749616 34.16068884 -46.3125 30 C-46.33699219 28.93201172 -46.36148438 27.86402344 -46.38671875 26.76367188 C-46.42192904 17.15713228 -44.2436334 9.04214533 -37.57421875 1.90234375 C-26.01970675 -8.43880661 -12.67502684 -6.99106949 0 0 Z " fill="#040400" transform="translate(150.9375,218.5625)"/>
<path d="M0 0 C0.66914429 -0.00004028 1.33828857 -0.00008057 2.02770996 -0.00012207 C3.43637533 0.00521721 4.84504154 0.02273242 6.25341797 0.05175781 C8.40034748 0.09363487 10.5441368 0.09282135 12.69140625 0.0859375 C24.3662096 0.1751205 24.3662096 0.1751205 28.90625 3.59375 C30.47325442 6.72775885 30.75789561 10.22530095 29.90625 13.59375 C27.74953289 16.12535658 26.05333058 17.42947989 22.71386719 17.90771484 C20.16198187 17.98749302 17.6448421 17.94267378 15.09375 17.84375 C14.21009766 17.82570312 13.32644531 17.80765625 12.41601562 17.7890625 C10.24562457 17.74213513 8.07579481 17.67039731 5.90625 17.59375 C6.6381035 18.90980565 7.38928669 20.21512429 8.1484375 21.515625 C8.56464355 22.24362305 8.98084961 22.97162109 9.40966797 23.72167969 C11.95325745 26.90344871 15.00988677 26.83961518 18.90625 27.59375 C21.501011 29.86416587 21.83655392 31.12579058 22.34375 34.53125 C21.80544863 38.29935958 20.53061976 39.89219289 17.90625 42.59375 C14.10497989 44.49438506 9.83556378 44.1685171 5.84765625 42.98046875 C-2.15570625 39.43901985 -6.63903033 33.29601934 -10.03125 25.40625 C-12.27597375 19.00021113 -13.64501009 12.30979368 -12.09375 5.59375 C-8.34722719 0.87506686 -5.95999675 -0.03405712 0 0 Z " fill="#040300" transform="translate(298.09375,161.40625)"/>
<path d="M0 0 C3.9178481 2.70531701 6.35968738 5.72535484 8.67578125 9.84765625 C9.35640625 11.02328125 9.35640625 11.02328125 10.05078125 12.22265625 C11.0625853 16.47223324 11.35694277 20.51944243 10.67578125 24.84765625 C8.61328125 27.97265625 8.61328125 27.97265625 5.67578125 29.84765625 C2.17578125 30.53515625 2.17578125 30.53515625 -1.32421875 29.84765625 C-6.25683273 25.57272413 -7.38260088 21.17195541 -8.32421875 14.84765625 C-11.3513325 14.18155933 -14.21919457 13.74346081 -17.32421875 13.84765625 C-21.14372521 16.36690519 -22.44128967 18.63810426 -23.38671875 22.97265625 C-24.32421875 26.84765625 -24.32421875 26.84765625 -26.01171875 28.84765625 C-29.33348258 30.28409466 -31.74653785 30.29486636 -35.32421875 29.84765625 C-37.68919314 27.9805712 -38.9845259 26.52704194 -40.32421875 23.84765625 C-41.08569112 16.74058075 -39.31184721 11.76167527 -35.32421875 5.84765625 C-25.23841205 -5.41975124 -13.1197505 -7.19799541 0 0 Z " fill="#040300" transform="translate(249.32421875,149.15234375)"/>
<path d="M0 0 C6.78359526 3.79386482 11.16705092 8.92129291 14.3828125 15.9375 C15.21447712 19.92949017 15.46275392 22.84302726 15.0078125 26.9375 C12.5703125 29.875 12.5703125 29.875 10.0078125 31.9375 C9.6778125 32.2675 9.3478125 32.5975 9.0078125 32.9375 C5.34493481 32.7301673 2.76589163 32.44971563 -0.3046875 30.375 C-2.27351732 27.5311347 -2.78094129 25.11030851 -3.51953125 21.77734375 C-3.93213312 19.84301788 -3.93213312 19.84301788 -5.1171875 17.9375 C-8.28558857 16.2476861 -11.49512375 16.42537769 -14.9921875 16.9375 C-17.03100845 17.80879307 -17.03100845 17.80879307 -17.9921875 19.9375 C-18.32789365 21.24425701 -18.63778641 22.55776568 -18.9296875 23.875 C-19.77956321 27.6337999 -20.71998502 29.66513717 -23.9921875 31.9375 C-26.8671875 33 -26.8671875 33 -29.9921875 32.9375 C-34.27711207 30.71568726 -34.27711207 30.71568726 -35.9921875 27.9375 C-37.22062974 21.97211002 -36.51230408 16.14087157 -33.4609375 10.85546875 C-25.18023865 0.04210934 -13.23276316 -4.69884018 0 0 Z " fill="#050400" transform="translate(381.9921875,138.0625)"/>
<path d="M0 0 C7.68434305 -0.27444082 14.54828357 0.34042702 21 5 C21.78375 5.53625 22.5675 6.0725 23.375 6.625 C25.43104356 9.62998674 25.38240616 11.7737956 24.7890625 15.31640625 C21.66251423 25.94976597 14.88408984 34.46329342 7 42 C6.67 42 6.34 42 6 42 C5.88930176 41.16339844 5.77860352 40.32679688 5.66455078 39.46484375 C5.24697209 36.32583392 4.8252718 33.18741165 4.40087891 30.04931641 C4.21891707 28.69764592 4.03854296 27.34576062 3.85986328 25.99365234 C2.91698552 18.86676066 1.86906193 11.94223004 0 5 C-0.125 2 -0.125 2 0 0 Z " fill="#F99500" transform="translate(440,179)"/>
<path d="M0 0 C1.04800781 -0.02223633 1.04800781 -0.02223633 2.1171875 -0.04492188 C6.05108043 0.01816886 7.86389381 0.5793682 10.96484375 3.04296875 C13 5.6875 13 5.6875 13.5625 8.6875 C12.87642343 12.34657504 11.57265686 14.03917676 9 16.6875 C6.07752427 18.14873786 3.44146161 17.9352615 0.1875 18 C-1.64748047 18.05607422 -1.64748047 18.05607422 -3.51953125 18.11328125 C-7.59773794 17.61437605 -9.16883897 16.61251167 -12 13.6875 C-13.125 10.3125 -13.125 10.3125 -13 6.6875 C-9.44611682 1.05245177 -6.72298741 -0.26668677 0 0 Z " fill="#E9235F" transform="translate(401,187.3125)"/>
<path d="M0 0 C0.70318359 -0.02384766 1.40636719 -0.04769531 2.13085938 -0.07226562 C6.09921852 -0.0611081 7.89292228 0.42839973 11.03125 2.91015625 C13.0625 5.5625 13.0625 5.5625 13.625 8.5625 C12.93892343 12.22157504 11.63515686 13.91417676 9.0625 16.5625 C4.3886088 18.8994456 -1.86309586 18.06700723 -6.9375 17.5625 C-10.3125 15.5625 -10.3125 15.5625 -11.9375 12.5625 C-12.5795786 9.53212902 -12.39379427 7.75655987 -11.9375 4.5625 C-8.76253379 0.00150793 -5.1912522 -0.08044785 0 0 Z " fill="#E92260" transform="translate(212.9375,204.4375)"/>
</svg>
